<svg width="24" height="24" viewBox="0 0 24 24" fill="none" xmlns="http://www.w3.org/2000/svg">
<path opacity="0.4" d="M10.75 2.44995C11.44 1.85995 12.57 1.85995 13.27 2.44995L14.85 3.80995C15.15 4.06995 15.71 4.27995 16.11 4.27995H17.81C18.87 4.27995 19.74 5.14995 19.74 6.20995V7.90995C19.74 8.29995 19.95 8.86995 20.21 9.16995L21.57 10.7499C22.16 11.4399 22.16 12.5699 21.57 13.2699L20.21 14.8499C19.95 15.1499 19.74 15.7099 19.74 16.1099V17.8099C19.74 18.8699 18.87 19.7399 17.81 19.7399H16.11C15.72 19.7399 15.15 19.9499 14.85 20.2099L13.27 21.5699C12.58 22.1599 11.45 22.1599 10.75 21.5699L9.17 20.2099C8.87 19.9499 8.31 19.7399 7.91 19.7399H6.18C5.12 19.7399 4.25 18.8699 4.25 17.8099V16.0999C4.25 15.7099 4.04 15.1499 3.79 14.8499L2.44 13.2599C1.86 12.5699 1.86 11.4499 2.44 10.7599L3.79 9.16995C4.04 8.86995 4.25 8.30995 4.25 7.91995V6.19995C4.25 5.13995 5.12 4.26995 6.18 4.26995H7.91C8.3 4.26995 8.87 4.05995 9.17 3.79995L10.75 2.44995Z" fill="#31B7BD"/>
<path d="M10.79 15.17C10.59 15.17 10.4 15.09 10.26 14.95L7.84 12.53C7.55 12.24 7.55 11.76 7.84 11.47C8.13 11.18 8.61 11.18 8.9 11.47L10.79 13.36L15.09 9.06003C15.38 8.77003 15.86 8.77003 16.15 9.06003C16.44 9.35003 16.44 9.83003 16.15 10.12L11.32 14.95C11.18 15.09 10.99 15.17 10.79 15.17Z" fill="#31B7BD"/>
</svg>
